<?xml version="1.0" encoding="UTF-8" standalone="no"?>
<!-- Created with Inkscape (http://www.inkscape.org/) -->

<svg
   width="554.8313mm"
   height="839.48145mm"
   viewBox="0 0 554.8313 839.48144"
   version="1.1"
   id="svg1"
   xml:space="preserve"
   inkscape:version="1.3.2 (091e20e, 2023-11-25, custom)"
   sodipodi:docname="Major League Cricket logo.svg"
   xmlns:inkscape="http://www.inkscape.org/namespaces/inkscape"
   xmlns:sodipodi="http://sodipodi.sourceforge.net/DTD/sodipodi-0.dtd"
   xmlns="http://www.w3.org/2000/svg"
   xmlns:svg="http://www.w3.org/2000/svg"><sodipodi:namedview
     id="namedview1"
     pagecolor="#ffffff"
     bordercolor="#000000"
     borderopacity="0.25"
     inkscape:showpageshadow="2"
     inkscape:pageopacity="0.0"
     inkscape:pagecheckerboard="0"
     inkscape:deskcolor="#d1d1d1"
     inkscape:document-units="mm"
     inkscape:zoom="0.08"
     inkscape:cx="2562.5"
     inkscape:cy="268.75"
     inkscape:window-width="1920"
     inkscape:window-height="1009"
     inkscape:window-x="-8"
     inkscape:window-y="-8"
     inkscape:window-maximized="1"
     inkscape:current-layer="layer1" /><defs
     id="defs1" /><g
     inkscape:label="Layer 1"
     inkscape:groupmode="layer"
     id="layer1"
     transform="translate(994.44053,243.03506)"><path
       style="display:inline;fill:#e90047"
       d="m -11.773959,577.46099 -29.36875,-15.98453 -0.06721,-277.49709 -0.06721,-277.4970798 -20.271069,-8.8578616 c -11.149088,-4.8718238 -20.310058,-8.9794806 -20.357713,-9.1281246 -0.04765,-0.148645 -0.122773,-1.788339 -0.16693,-3.643765 l -0.08029,-3.373501 49.940103,6.4e-5 49.940102,6.3e-5 V 287.46979 c 0,168.29485 -0.02976,305.98728 -0.06615,305.98318 -0.03638,-0.004 -13.2820825,-7.20048 -29.434894,-15.99198 z m -86.386456,-47.23297 c -3.419735,-1.87413 -16.516615,-9.00743 -29.104165,-15.85179 l -22.88646,-12.44427 -0.13229,-247.63664 c -0.0728,-136.20015 -0.19447,-247.698819 -0.27046,-247.7748128 -0.076,-0.075994 -9.24381,-4.1174113 -20.37292,-8.9809276 l -20.23474,-8.8427566 -0.0736,-3.608829 -0.0736,-3.608829 h 49.88142 49.881428 V 257.57188 c 0,151.85099 -0.0893,276.08617 -0.198438,276.07818 -0.10914,-0.008 -2.996406,-1.5479 -6.416145,-3.42204 z m -107.817705,-58.9101 c -2.7649,-1.527 -15.95107,-8.74035 -29.3026,-16.02967 l -24.27552,-13.25331 V 211.75705 -18.520835 h 29.36875 29.36874 V 227.80625 c 0,135.4799 -0.0298,246.3183 -0.0661,246.30756 -0.0364,-0.0107 -2.32833,-1.26889 -5.09323,-2.79589 z"
       id="path9"
       transform="translate(-734.88429,2.9934199)" /><path
       style="display:inline;fill:#000a5a"
       d="M 68.791663,273.60747 V -18.256252 H 81.05131 c 6.742806,0 17.994212,0.07897 25.00312,0.175485 l 12.74348,0.175486 -0.0103,237.751081 -0.0103,237.75108 -9.90353,10.98021 -9.903525,10.9802 -0.008,2.31511 c -0.0044,1.27331 0.06759,2.3151 0.16003,2.3151 0.145446,0 9.529585,-4.83195 19.807965,-10.19924 1.74625,-0.91187 13.53344,-7.04044 26.19375,-13.61904 12.66031,-6.57859 23.22711,-12.07069 23.48177,-12.20467 0.43978,-0.23135 0.46248,1.34096 0.45215,31.31729 l -0.0109,31.56087 -6.66986,3.60927 c -6.30958,3.41431 -77.71811,42.30275 -87.896934,47.86788 -2.619375,1.43211 -4.97086,2.68202 -5.225521,2.77759 -0.440797,0.16541 -0.463021,-13.83472 -0.463021,-291.68998 z M 197.37916,238.36188 V -18.520835 h 48.94791 48.94792 v 60.817347 60.817348 l -2.05052,0.94394 c -1.12779,0.51916 -7.37574,3.57183 -13.88434,6.78369 -6.50861,3.21187 -11.89581,5.83976 -11.97156,5.83976 -0.0758,0 -0.16788,-18.365391 -0.20472,-40.81198 l -0.067,-40.81198 h -12.7 -12.7 l -0.0671,179.3875 -0.0671,179.3875 -9.77404,10.98021 -9.77404,10.98021 -0.0146,2.18961 -0.0145,2.1896 0.85989,-0.43695 c 0.47295,-0.24032 4.61037,-2.37638 9.19427,-4.7468 15.4223,-7.97513 19.15098,-9.89889 27.0133,-13.9371 l 7.831,-4.02213 0.17264,-5.54359 c 0.095,-3.04897 0.17265,-18.47298 0.17265,-34.27557 v -28.73199 l 14.02291,-6.92205 14.02292,-6.92204 v 63.68674 63.68675 l -39.35677,21.40815 c -21.64622,11.77449 -43.67279,23.75291 -48.94792,26.61871 l -9.59114,5.21055 z m -447.08148,-300.871467 -7.20809,-7.211668 v -43.788545 -43.78854 l 7.34393,-7.34041 7.34393,-7.34042 h 20.63753 20.63753 l 7.34041,7.34393 7.34042,7.34393 v 9.32757 9.32758 l -11.70781,-0.0689 -11.70782,-0.0689 -0.0711,-6.01927 -0.0711,-6.01927 h -11.76899 -11.76899 v 37.30625 37.306248 h 11.77395 11.77396 v -6.746875 -6.746875 l 4.43177,-5.14e-4 c 2.43748,-2.82e-4 7.73576,-0.07896 11.77396,-0.17484 l 7.34219,-0.174326 v 10.173089 10.17309 l -7.22954,7.199667 -7.22953,7.199667 h -20.88425 -20.88425 z m 80.10441,-51.128953 v -58.34063 h 27.98149 27.98149 l 7.23058,7.23417 7.23058,7.23417 -0.03034,22.99448 -0.03034,22.99447 -6.88845,6.89815 -6.88845,6.898146 3.22336,6.727895 c 8.78504,18.336458 15.985098,33.315079 16.557558,34.445496 l 0.637712,1.259267 -12.99654,-0.06864 -12.99654,-0.06864 -8.70422,-19.976042 c -4.78733,-10.986823 -8.82109,-20.243933 -8.96393,-20.571354 -0.25552,-0.585732 -0.33644,-0.595313 -5.02787,-0.595313 H -146.05 v 20.6375 20.6375 h -11.77396 -11.77395 z m 44.48706,-6.66411 2.60877,-2.56307 v -13.97339 -13.97339 H -134.27604 -146.05 v 16.53646 16.53645 h 9.16519 9.16519 z m 43.883768,6.66135 v -58.34337 l 11.707812,0.0689 11.707812,0.0689 0.06674,58.27448 0.06674,58.274481 h -11.774549 -11.774548 z m 48.747673,51.131713 -7.208091,-7.211668 v -43.925475 -43.92547 l 7.22098,-7.20349 7.22098,-7.20348 H -4.4921019 16.261337 l 7.347455,7.34746 7.347456,7.34745 v 9.3213 9.32129 H 19.18229 7.4083316 v -6.08814 -6.08814 l -11.8401038,0.0689 -11.8401038,0.0689 v 37.17396 37.173956 H -4.497918 7.2760399 l 0.070603,-6.639702 0.070603,-6.639703 11.5052311,-0.188739 c 6.327877,-0.103807 11.624153,-0.115243 11.769501,-0.02541 0.168441,0.104102 0.26427,3.795479 0.26427,10.179819 v 10.016491 l -7.342188,7.164558 -7.342187,7.164558 -20.7715947,0.0013 -20.7715943,0.0013 z m 80.104406,-51.128953 v -58.34063 h 11.509375 11.509374 v 22.87084 c 0,12.57897 0.0893,22.91883 0.198438,22.97747 0.10914,0.0586 5.10886,-2.9366 11.110488,-6.65609 l 10.91205,-6.76271 0.06816,-16.14861 0.06816,-16.14861 h 11.641668 11.64167 l 0.0679,19.57483 0.0679,19.57483 -4.83038,4.84111 -4.83037,4.8411 4.82865,4.78359 4.82864,4.7836 v 29.074951 29.07495 H 104.775 93.133329 v -25.471371 -25.47137 l -2.452367,-2.44217 c -1.348802,-1.3432 -2.569235,-2.44217 -2.712073,-2.44217 -0.142838,0 -4.069663,1.93476 -8.726278,4.29948 l -8.466573,4.29948 -0.06757,23.614059 -0.06757,23.614062 H 59.13295 47.624997 Z m 85.606283,53.511975 c -0.0968,-2.655755 -0.13953,-28.879271 -0.0948,-58.274475 l 0.0813,-53.44584 34.46198,-0.0671 34.46198,-0.0671 v 10.58432 10.58432 h -22.75417 -22.75416 v 12.56771 12.5677 h 17.06562 17.06563 v 10.31875 10.31875 h -17.06563 -17.06562 v 14.419796 14.419792 h 22.75416 22.75417 v 10.451042 10.451041 h -34.36715 -34.36714 z m 108.59788,-42.926195 v -47.75485 l -13.29531,-0.0686 -13.29532,-0.0686 v -10.45105 -10.45104 h 38.62917 38.62916 v 10.45104 10.45105 l -13.55989,0.0685 -13.5599,0.0685 v 47.75489 47.754891 h -11.77395 -11.77396 z m -374.25312,-92.23572 c -5.54727,-0.45187 -9.24717,-2.68642 -10.72572,-6.4778 -0.51597,-1.32307 -0.62852,-2.19198 -0.72545,-5.60091 l -0.11474,-4.0349 h 1.17773 c 0.64776,0 2.44642,-0.0776 3.99703,-0.1725 l 2.81928,-0.1725 0.0115,2.09073 c 0.0263,4.77404 1.05716,6.42383 4.37908,7.00839 3.47189,0.61096 6.26068,-0.56495 7.47297,-3.151 l 0.70414,-1.50207 0.0762,-18.71928 0.0762,-18.71927 h 4.48787 4.48786 l -0.009,18.3224 c -0.0103,20.46321 -0.0554,21.11096 -1.70078,24.4402 -2.53043,5.11996 -8.05141,7.36971 -16.41395,6.68851 z m 48.815628,0.0101 c -8.974479,-0.65082 -14.348615,-5.22481 -15.7894,-13.43855 -0.590673,-3.36736 -0.368488,-22.51591 0.287504,-24.7779 1.799663,-6.20557 5.785924,-10.0708 12.194604,-11.82435 2.902851,-0.79427 10.388837,-0.86001 13.229166,-0.11617 6.368836,1.66791 10.502745,5.81729 11.952178,11.99691 0.426517,1.81845 0.48272,3.31807 0.478817,12.77591 -0.005,12.03 -0.121509,13.07375 -1.852505,16.59061 -3.206527,6.51468 -10.251887,9.53676 -20.500364,8.79354 z m 8.25882,-8.53182 c 1.848981,-0.90797 3.341501,-2.54843 4.04473,-4.44565 0.497564,-1.34236 0.528741,-2.08172 0.528741,-12.53898 v -11.1125 l -0.766933,-1.66076 c -1.595225,-3.45441 -5.013551,-5.09589 -9.8953,-4.75173 -3.90383,0.27522 -6.344833,1.70126 -7.709123,4.50368 -1.232852,2.53244 -1.398571,4.42606 -1.285885,14.69344 0.09463,8.62255 0.135296,9.26919 0.674401,10.72481 0.744607,2.0105 1.644703,3.16376 3.164259,4.05428 1.919677,1.12501 3.323774,1.4057 6.690456,1.33751 2.729071,-0.0553 3.198557,-0.13817 4.554654,-0.8041 z m 247.593252,8.53399 c -7.11207,-0.55037 -11.92976,-3.92775 -13.89696,-9.7423 -1.03143,-3.04865 -1.24009,-6.19683 -1.11723,-16.85637 0.0953,-8.26666 0.1844,-10.03217 0.57986,-11.48765 1.81244,-6.67073 6.2553,-10.76593 13.24371,-12.20735 3.42518,-0.70647 9.17482,-0.58138 12.38619,0.26949 6.73803,1.78527 10.73903,6.92716 10.76026,13.82855 l 0.005,1.49381 -2.05052,0.15399 c -1.12779,0.0847 -3.13359,0.22734 -4.45733,0.317 l -2.40682,0.16301 -0.16322,-1.7479 c -0.33379,-3.5745 -1.27952,-5.17239 -3.78761,-6.39948 -1.23566,-0.60455 -1.92379,-0.74277 -4.20234,-0.84411 -3.86021,-0.17168 -5.99268,0.48233 -7.94791,2.43756 -1.12918,1.12918 -1.50208,1.73856 -1.94866,3.18441 -0.52074,1.68598 -0.55226,2.38873 -0.55226,12.3156 0,9.91415 0.0321,10.63139 0.55018,12.30887 1.01646,3.29091 3.40133,4.97621 7.54067,5.32872 3.52487,0.30018 6.95637,-0.71093 8.85444,-2.609 1.52941,-1.52941 2.16974,-3.34817 2.20565,-6.26483 l 0.0314,-2.54605 -4.96093,-0.072 -4.96094,-0.072 v -3.56604 -3.56603 h 9.12812 9.12813 v 12.57763 12.57764 l -2.43828,-0.0761 -2.43829,-0.0761 -0.43687,-1.92706 c -0.24028,-1.05989 -0.50661,-1.99681 -0.59185,-2.08204 -0.0852,-0.0852 -0.78571,0.40012 -1.55661,1.07858 -3.56178,3.13466 -8.60537,4.56352 -14.49852,4.10747 z m 50.27084,-0.26158 c -5.96209,-0.73056 -10.12597,-3.30454 -12.18105,-7.52995 -1.72179,-3.54014 -1.67519,-2.93164 -1.77794,-23.21719 l -0.0935,-18.45469 h 4.50048 4.50048 l 0.0862,17.66094 c 0.0785,16.07589 0.12843,17.78702 0.55631,19.06577 0.54021,1.61443 1.95246,3.30584 3.35967,4.02374 1.42177,0.72534 4.27806,1.1493 6.4088,0.95127 4.4317,-0.41188 6.66689,-2.60778 7.331,-7.20215 0.15203,-1.05176 0.2658,-8.73819 0.26883,-18.16155 l 0.005,-16.33802 h 4.51435 4.51435 l -0.0975,18.19011 c -0.0965,17.99865 -0.10379,18.21097 -0.69663,20.17259 -1.34907,4.46389 -3.51813,7.15771 -7.2284,8.97715 -1.20825,0.59251 -3.06728,1.25613 -4.13118,1.47472 -2.48072,0.5097 -7.29428,0.69915 -9.83959,0.38726 z m -476.51457,-24.99245 v -24.20938 l 5.75468,4.6e-4 5.75469,4.6e-4 5.82083,13.61989 c 3.20146,7.49093 5.94253,13.62244 6.09127,13.62558 0.14874,0.003 1.01625,-1.63141 1.9278,-3.63232 0.91155,-2.00092 3.70689,-8.13213 6.21186,-13.62492 l 4.55449,-9.9869 5.4901,-0.001 5.49011,-0.001 v 24.20938 24.20937 h -4.10104 -4.10105 v -18.10834 c 0,-9.95959 -0.1024,-18.17163 -0.22756,-18.24899 -0.12516,-0.0773 -3.00259,5.87258 -6.39429,13.22206 l -6.16674,13.36269 -2.7734,-0.0746 -2.7734,-0.0746 -5.79688,-13.09688 c -3.18829,-7.20328 -5.90892,-13.20998 -6.04585,-13.34823 -0.15558,-0.15707 -0.24896,6.61588 -0.24896,18.05782 v 18.30916 h -4.23333 -4.23333 z m 59.26666,22.59664 c 0,-1.63138 0.28886,-2.60454 12.79366,-43.10185 l 1.10293,-3.57188 6.54545,-0.0708 c 3.60001,-0.0389 6.54546,-0.009 6.54546,0.0667 0,0.0756 3.21469,10.39614 7.14375,22.93444 5.24179,16.72744 7.14375,23.13929 7.14375,24.08287 v 1.28596 l -4.42237,-0.0725 -4.42238,-0.0725 -1.40238,-4.89479 c -0.77132,-2.69214 -1.52471,-5.34287 -1.6742,-5.89053 l -0.27181,-0.99574 -8.74843,0.0697 -8.74842,0.0697 -1.64804,5.82083 -1.64804,5.82083 -4.14446,0.0729 -4.14447,0.0729 z m 26.55843,-18.4435 c 0.0722,-0.11687 -1.20241,-4.84831 -2.83252,-10.51431 -2.11902,-7.36538 -3.0787,-10.32394 -3.36678,-10.37942 -0.31711,-0.0611 -1.03301,2.13086 -3.36062,10.28948 -1.62672,5.7019 -2.89515,10.46826 -2.81873,10.59191 0.17669,0.28588 12.20218,0.29787 12.37865,0.0123 z m 121.608233,-4.15314 v -24.20938 h 11.33476 c 10.42696,0 11.498657,0.0419 13.381175,0.52339 3.897512,0.99681 6.446518,2.9403 7.910985,6.03173 l 0.842871,1.77926 v 6.61458 6.61458 l -0.718479,1.5334 c -0.912183,1.9468 -3.307224,4.35569 -5.2934,5.324 l -1.513963,0.7381 0.430131,0.83246 c 0.236573,0.45785 2.257309,4.13182 4.490525,8.16437 3.866272,6.98138 4.060394,7.40197 4.060394,8.7974 v 1.46548 h -4.336883 -4.336883 l -4.421287,-8.53281 c -2.431708,-4.69305 -4.54544,-8.6848 -4.697183,-8.87057 -0.205513,-0.2516 -1.227956,-0.3191 -4.007975,-0.26459 l -3.73208,0.0732 -0.06971,8.7974 -0.06971,8.79739 h -4.626641 -4.626642 z m 20.588835,-1.27569 c 3.072146,-1.16478 3.82534,-2.48146 3.967236,-6.93524 0.128383,-4.02963 -0.161261,-5.19208 -1.650596,-6.62442 -1.692389,-1.62764 -3.234364,-1.96569 -8.966062,-1.96569 h -4.678996 v 8.09785 8.09785 l 5.093229,-0.11869 c 3.844926,-0.0896 5.373112,-0.22481 6.235189,-0.55166 z m 50.319496,1.27569 v -24.20938 h 4.497917 4.497916 v 20.10834 20.10833 h 8.995834 8.995833 v 4.10104 4.10104 h -13.49375 -13.49375 z m 40.745833,0 v -24.20938 h 14.684374 14.684375 v 3.83646 3.83646 H 84.402079 74.347913 v 6.08542 6.08541 h 9.525 9.524999 v 3.83646 3.83646 h -9.524999 -9.525 v 6.48229 6.48229 h 10.715625 10.715624 v 3.96875 3.96875 H 80.433329 65.087497 Z m 41.533253,22.9526 c -0.005,-0.90823 1.95513,-7.62215 7.06638,-24.20937 l 7.07269,-22.95261 h 6.52883 6.52882 l 0.125,0.59532 c 0.0687,0.32742 1.68103,5.5364 3.58286,11.57552 10.18495,32.34157 10.37675,32.982 10.37675,34.64856 v 1.59935 h -4.31761 -4.3176 l -1.67285,-5.95664 -1.67284,-5.95665 -8.75049,0.0697 -8.7505,0.0697 -1.40257,4.89479 c -0.77141,2.69213 -1.52445,5.34127 -1.67342,5.88698 l -0.27085,0.99218 h -4.22314 -4.22313 z m 26.77914,-18.72506 c 0.0759,-0.076 -1.19675,-4.80869 -2.82821,-10.51719 -2.25242,-7.88122 -3.07099,-10.39969 -3.40129,-10.46465 -0.23924,-0.047 -0.43498,-0.047 -0.43498,1.5e-4 0,0.0471 -1.30969,4.66947 -2.91042,10.27186 -1.60072,5.60238 -2.91041,10.33505 -2.91041,10.51703 0,0.25533 1.4096,0.33088 6.17361,0.33088 3.39549,0 6.23575,-0.0621 6.3117,-0.13808 z m 125.3626,-4.22754 v -24.20938 h 14.68438 14.68437 v 3.83646 3.83646 h -10.05417 -10.05416 v 6.08542 6.08541 h 9.525 9.525 v 3.83646 3.83646 h -9.525 -9.525 v 6.48229 6.48229 h 10.71562 10.71563 v 3.96875 3.96875 h -15.34584 -15.34583 z"
       id="path8"
       transform="translate(-734.88429,2.9934199)" /></g></svg>
