<?xml version="1.0"?>
<svg xmlns="http://www.w3.org/2000/svg" xmlns:xlink="http://www.w3.org/1999/xlink" width="250px" height="235.04px"
	 viewBox="0 0 250 235.04" style="enable-background:new 0 0 250 235.04;" xml:space="preserve">
<style type="text/css">
	.st0{fill:#140D3E;}
</style>
<g>
	<g>
		<path class="st0" d="M0,98.16c0.41-0.24,1.02-0.44,1.43-0.85c11.24-11.18,22.45-22.4,33.72-33.56c1.08-1.07,1.03-1.65,0-2.68
			C23.9,49.9,12.69,38.68,1.48,27.47c-0.38-0.38-0.73-0.77-1.03-1.09C9.2,17.67,17.91,9.01,26.79,0.18c2.6,2.64,5.43,5.55,8.32,8.42
			c4.27,4.24,8.62,8.41,12.88,12.67c4.51,4.51,8.98,9.06,13.4,13.66c0.98,1.02,1.61,1.04,2.61,0.02
			c6.04-6.16,12.11-12.29,18.21-18.39c5.15-5.16,10.36-10.26,15.54-15.4c0.34-0.34,0.66-0.7,1.1-1.16c1.04,0.98,2.09,1.95,3.11,2.95
			c4.57,4.51,9.15,9.02,13.69,13.56c2.77,2.77,5.5,5.58,8.19,8.42c0.82,0.86,1.49,1.08,2.39,0.17c2.52-2.54,5.06-5.05,7.59-7.58
			c2.11-2.11,4.19-4.24,6.29-6.35c2.63-2.63,5.26-5.26,7.9-7.87c1.06-1.04,2.16-2.05,3.39-3.21c0.53,0.49,1.2,1.09,1.84,1.72
			c6.2,6.19,12.4,12.38,18.6,18.57c4.81,4.81,9.61,9.63,14.42,14.44c1.34,1.34,1.43,1.35,2.78,0c11.25-11.25,22.5-22.5,33.76-33.75
			c0.34-0.34,0.7-0.66,0.97-0.92c8.72,8.74,17.4,17.43,26.03,26.09c-11.87,11.91-23.87,23.95-35.92,36.03
			c12.18,12.16,24.19,24.16,36.14,36.1c-8.83,8.85-17.52,17.56-26.41,26.46c-2.6-2.66-5.26-5.43-7.98-8.15
			c-8.79-8.8-17.59-17.59-26.39-26.38c-1.59-1.59-1.6-1.6-3.21,0c-11.09,11.06-22.18,22.12-33.26,33.19
			c-0.41,0.41-0.76,0.89-1.39,1.66c-2.52-2.63-4.83-5.11-7.22-7.51c-4.57-4.61-9.18-9.17-13.77-13.76
			c-1.36-1.36-2.77-2.67-4.08-4.08c-0.85-0.92-1.5-0.79-2.3,0.04c-2.53,2.65-5.06,5.3-7.65,7.88c-2.77,2.76-5.63,5.44-8.42,8.19
			c-2.99,2.95-5.94,5.95-9.03,9.04c-3.37-3.4-6.65-6.73-9.96-10.05c-8.24-8.25-16.48-16.5-24.73-24.75
			c-1.43-1.43-1.5-1.44-2.89-0.05c-11.12,11.11-22.23,22.22-33.34,33.35c-0.48,0.48-0.83,1.08-1.16,1.51
			C17.84,116,9.13,107.29,0,98.16z M161.03,62.49c-0.23-0.32-0.38-0.61-0.6-0.84c-0.75-0.76-1.54-1.48-2.29-2.23
			c-10.69-10.72-21.38-21.43-32.06-32.16c-0.63-0.63-1.03-0.78-1.76-0.05C112.9,38.64,101.47,50.06,90,61.44
			c-0.89,0.88-0.66,1.36,0.08,2.08c2.71,2.63,5.4,5.3,8.07,7.97c4.37,4.38,8.72,8.78,13.09,13.16c4.12,4.13,8.26,8.24,12.38,12.38
			c1.19,1.19,1.86,1.22,3.04,0.03c3.37-3.38,6.75-6.77,10.13-10.15c7.83-7.83,15.67-15.65,23.51-23.47
			C160.55,63.18,160.75,62.86,161.03,62.49z"/>
		<path class="st0" d="M104.91,207.84c-5.71,0-11.22,0-16.98,0c0,0.5,0,1.01,0,1.52c0,7.52,0,15.04,0,22.56
			c0,2.47-0.64,3.11-3.11,3.12c-3.47,0.01-6.93,0.01-10.4,0c-2.53,0-3.14-0.64-3.14-3.22c0-22.95,0.05-45.89-0.03-68.84
			c-0.03-8.35,5.38-14.36,12.61-16.36c1.44-0.4,2.96-0.68,4.45-0.67c6.24,0.04,12.51-0.21,18.69,0.44
			c6.8,0.72,12.22,6.26,13.68,12.83c0.12,0.56,0.08,1.17,0.08,1.75c0,23.87,0,47.75,0,71.62c0,1.77-0.55,2.4-2.31,2.42
			c-3.71,0.04-7.42,0.04-11.13,0c-1.73-0.02-2.41-0.77-2.41-2.57c-0.01-7.67-0.01-15.33-0.01-23
			C104.91,208.97,104.91,208.49,104.91,207.84z M87.93,193.61c5.76,0,11.33,0,16.96,0c0-9.78,0.04-19.43-0.03-29.08
			c-0.02-2.31-2.08-4.16-4.42-4.2c-2.68-0.05-5.36-0.05-8.04,0c-2.62,0.04-4.46,1.94-4.46,4.55c-0.01,6.1,0,12.19,0,18.29
			C87.93,186.61,87.93,190.07,87.93,193.61z"/>
		<path class="st0" d="M187.59,190.33c0-9.96-0.16-19.93,0.05-29.88c0.16-7.69,4.48-13.23,12.63-14.03c7.44-0.73,15-0.49,22.5-0.33
			c3.62,0.08,7.04,1.39,9.81,3.95c3.39,3.14,4.47,7.21,4.48,11.62c0.03,19.19,0.02,38.38-0.01,57.57c0,1.44-0.26,2.9-0.53,4.32
			c-1.24,6.34-5.47,9.62-11.49,10.84c-2.27,0.46-4.64,0.6-6.96,0.6c-5.41,0.01-10.84,0.08-16.24-0.3
			c-6.66-0.47-12.08-3.66-13.8-11.03c-0.4-1.73-0.43-3.57-0.44-5.36c-0.04-9.33-0.02-18.65-0.02-27.98
			C187.57,190.33,187.58,190.33,187.59,190.33z M220.99,190.52c0-8.59-0.08-17.18,0.04-25.77c0.04-2.72-1.94-4.47-4.44-4.43
			c-2.54,0.03-5.08,0-7.62,0.01c-3.42,0.01-4.99,1.57-4.99,4.96c0,5.52,0,11.03,0,16.55c0,11.28,0,22.55,0,33.83
			c0,3.23,1.17,4.61,4.36,4.78c2.87,0.15,5.76,0.11,8.63-0.03c2.88-0.14,4.02-1.5,4.02-4.41
			C220.99,207.51,220.99,199.01,220.99,190.52z"/>
		<path class="st0" d="M30.33,180.44c9.16,2.69,18.31,5.38,27.45,8.07c0.65,0.19,1.31,0.37,1.94,0.6c2.05,0.73,3.02,2.11,3.03,4.29
			c0,8.98,0.07,17.96-0.04,26.95c-0.05,4.06-1.34,7.75-4.48,10.54c-2.67,2.38-5.92,3.65-9.41,3.81c-6.09,0.27-12.19,0.33-18.28,0.28
			c-4.01-0.03-7.94-0.72-11.36-3.08c-3.77-2.6-5.56-6.38-5.77-10.78c-0.24-5.15-0.06-10.32-0.06-15.67c0.94,0,1.85,0,2.76,0
			c3.91,0,7.81,0,11.72,0c1.89,0,2.39,0.5,2.39,2.43c0.01,2.73-0.01,5.47,0.01,8.2c0.01,2.27,1.31,3.87,3.56,3.99
			c2.82,0.15,5.66,0.14,8.49,0.01c2.33-0.11,3.71-1.83,3.75-4.55c0.06-4.54,0-9.08,0.03-13.62c0.01-0.84-0.41-1-1.1-1.21
			c-9.24-2.71-18.48-5.45-27.71-8.2c-3.26-0.97-3.98-1.96-3.98-5.33c0-8.59-0.05-17.18,0.02-25.77c0.03-4.54,1.28-8.65,4.9-11.72
			c2.86-2.42,6.29-3.56,9.93-3.65c6.58-0.17,13.18-0.27,19.75,0.02c5.7,0.25,10.71,2.32,13.28,7.92c0.89,1.93,1.42,4.16,1.53,6.28
			c0.23,4.38,0.08,8.78,0.08,13.18c0,1.53-0.56,2.11-2.11,2.11c-4.2,0.02-8.4,0.02-12.59,0c-1.45-0.01-2-0.6-2.01-2.06
			c-0.02-2.59,0.01-5.17-0.01-7.76c-0.02-3.56-1.55-5.09-5.06-5.11c-2.05-0.01-4.1-0.02-6.15,0c-3.07,0.03-4.6,1.55-4.6,4.57
			c0,4.93,0.01,9.86,0.01,14.79C30.22,180.07,30.26,180.17,30.33,180.44z"/>
		<path class="st0" d="M162.1,220.18c0-1.59-0.02-2.95,0-4.31c0.03-1.62,0.79-2.45,2.42-2.47c4-0.04,8.01-0.04,12.01,0
			c1.66,0.02,2.5,0.89,2.51,2.57c0.03,5.47,0.02,10.94,0,16.41c-0.01,1.71-0.76,2.48-2.46,2.64c-0.34,0.03-0.68,0.01-1.02,0.01
			c-14.21,0-28.42,0-42.63-0.01c-0.67,0-1.47,0.05-1.98-0.28c-0.59-0.38-1.33-1.15-1.33-1.76c-0.08-11.67-0.05-23.34-0.06-35.01
			c0-1.56,1.04-2.35,2.25-2.95c4.04-2,8.1-3.97,12.16-5.93c5.72-2.77,11.46-5.51,17.15-8.33c0.46-0.23,0.92-1,0.93-1.53
			c0.07-4.78,0.06-9.57,0.04-14.36c-0.01-2.4-1.67-4.15-4.1-4.23c-2.54-0.08-5.08-0.08-7.62,0.01c-2.62,0.09-4.06,1.75-4.11,4.65
			c-0.05,2.68,0,5.37-0.01,8.06c-0.01,1.6-0.57,2.18-2.19,2.19c-4.15,0.02-8.3,0.02-12.45,0c-1.57-0.01-2.04-0.53-2.04-2.14
			c-0.01-4.3-0.07-8.6,0.01-12.89c0.15-8.45,5.35-13.5,12.67-14.13c7.41-0.63,14.91-0.54,22.36-0.29c4.63,0.15,8.81,1.98,11.66,5.99
			c2.06,2.89,2.72,6.23,2.76,9.66c0.09,8.06-0.04,16.11,0.07,24.17c0.03,2.62-1.04,4.13-3.34,5.21
			c-7.11,3.35-14.16,6.83-21.24,10.25c-1.96,0.95-3.91,1.95-5.9,2.84c-1.66,0.75-2.42,1.93-2.38,3.77c0.07,3.12,0,6.25,0.02,9.37
			c0.01,2.16,0.65,2.8,2.79,2.81C153.34,220.2,157.62,220.18,162.1,220.18z"/>
	</g>
</g>
</svg>
